<?xml version="1.0" encoding="UTF-8"?>
<svg xmlns="http://www.w3.org/2000/svg" xmlns:xlink="http://www.w3.org/1999/xlink" width="256pt" height="192pt" viewBox="0 0 256 192" version="1.1">
<g id="surface1">
<path style=" stroke:none;fill-rule:nonzero;fill:rgb(81.176471%,39.215686%,60.392157%);fill-opacity:1;" d="M 220.300781 110.300781 C 211.351562 110.351562 203.601562 112.5 197.101562 115.699219 C 194.699219 110.949219 192.300781 106.800781 191.898438 103.699219 C 191.449219 100.101562 190.898438 97.898438 191.449219 93.601562 C 192 89.300781 194.5 83.199219 194.5 82.699219 C 194.449219 82.25 193.949219 80.050781 188.800781 80 C 183.648438 79.949219 179.199219 81 178.699219 82.351562 C 178.199219 83.699219 177.199219 86.800781 176.550781 90 C 175.648438 94.699219 166.25 111.351562 160.898438 120.101562 C 159.148438 116.699219 157.648438 113.699219 157.351562 111.300781 C 156.898438 107.699219 156.351562 105.5 156.898438 101.199219 C 157.449219 96.898438 159.949219 90.800781 159.949219 90.300781 C 159.898438 89.851562 159.398438 87.648438 154.25 87.601562 C 149.101562 87.550781 144.648438 88.601562 144.148438 89.949219 C 143.648438 91.300781 143.101562 94.5 142 97.601562 C 140.949219 100.699219 128.449219 128.5 125.199219 135.75 C 123.550781 139.449219 122.101562 142.398438 121.050781 144.398438 C 120 146.398438 121 144.550781 120.898438 144.75 C 120 146.449219 119.5 147.398438 119.5 147.398438 L 119.5 147.449219 C 118.800781 148.699219 118.050781 149.898438 117.699219 149.898438 C 117.449219 149.898438 116.949219 146.550781 117.800781 141.949219 C 119.648438 132.300781 124.148438 117.25 124.101562 116.699219 C 124.101562 116.449219 124.949219 113.800781 121.199219 112.449219 C 117.550781 111.101562 116.25 113.351562 115.949219 113.351562 C 115.648438 113.351562 115.398438 114.148438 115.398438 114.148438 C 115.398438 114.148438 119.449219 97.199219 107.648438 97.199219 C 100.25 97.199219 90.050781 105.25 85 112.601562 C 81.800781 114.351562 75 118.050781 67.800781 122 C 65.050781 123.5 62.199219 125.101562 59.5 126.550781 L 58.949219 125.949219 C 44.648438 110.699219 18.199219 99.898438 19.300781 79.398438 C 19.699219 71.949219 22.300781 52.300781 70.101562 28.5 C 109.25 9 140.601562 14.351562 146.050781 26.25 C 153.800781 43.25 129.300781 74.851562 88.601562 79.398438 C 73.101562 81.148438 64.949219 75.148438 62.898438 72.898438 C 60.75 70.550781 60.449219 70.449219 59.648438 70.898438 C 58.351562 71.601562 59.148438 73.699219 59.648438 74.949219 C 60.851562 78.101562 65.851562 83.699219 74.351562 86.5 C 81.800781 88.949219 100 90.300781 122 81.800781 C 146.648438 72.25 165.898438 45.75 160.25 23.601562 C 154.5 1.050781 117.101562 -6.351562 81.75 6.199219 C 60.699219 13.699219 37.898438 25.398438 21.5 40.75 C 2 58.949219 -1.101562 74.851562 0.199219 81.449219 C 4.75 105 37.199219 120.351562 50.199219 131.699219 C 49.550781 132.050781 48.949219 132.398438 48.398438 132.699219 C 41.898438 135.898438 17.148438 148.851562 10.949219 162.550781 C 3.949219 178.050781 12.050781 189.199219 17.449219 190.699219 C 34.148438 195.351562 51.25 187 60.5 173.25 C 69.699219 159.5 68.601562 141.648438 64.351562 133.5 L 64.199219 133.199219 L 69.300781 130.199219 C 72.601562 128.25 75.851562 126.449219 78.699219 124.898438 C 77.101562 129.25 75.949219 134.398438 75.351562 141.898438 C 74.648438 150.699219 78.25 162.101562 83 166.601562 C 85.101562 168.550781 87.601562 168.601562 89.148438 168.601562 C 94.648438 168.601562 97.148438 164.050781 99.898438 158.601562 C 103.300781 151.949219 106.300781 144.25 106.300781 144.25 C 106.300781 144.25 102.550781 165.101562 112.800781 165.101562 C 116.550781 165.101562 120.300781 160.25 122 157.75 L 122 157.800781 C 122 157.800781 122.101562 157.648438 122.300781 157.300781 C 122.699219 156.699219 122.898438 156.351562 122.898438 156.351562 L 122.898438 156.25 C 124.398438 153.648438 127.75 147.699219 132.75 137.851562 C 139.199219 125.148438 145.398438 109.25 145.398438 109.25 C 145.398438 109.25 146 113.148438 147.851562 119.550781 C 148.949219 123.351562 151.351562 127.5 153.199219 131.550781 C 151.699219 133.648438 150.800781 134.851562 150.800781 134.851562 L 150.851562 134.898438 C 149.648438 136.5 148.300781 138.199219 146.898438 139.898438 C 141.800781 146 135.699219 152.949219 134.898438 154.949219 C 133.949219 157.300781 134.148438 159.050781 136 160.449219 C 137.351562 161.449219 139.75 161.648438 142.300781 161.449219 C 146.898438 161.148438 150.101562 160 151.699219 159.300781 C 154.199219 158.398438 157.050781 157.050781 159.800781 155.050781 C 164.800781 151.351562 167.851562 146.101562 167.550781 139.101562 C 167.398438 135.25 166.148438 131.449219 164.601562 127.851562 C 165.050781 127.199219 165.5 126.550781 165.949219 125.851562 C 173.851562 114.300781 179.949219 101.601562 179.949219 101.601562 C 179.949219 101.601562 180.550781 105.5 182.398438 111.898438 C 183.351562 115.148438 185.25 118.699219 186.949219 122.199219 C 179.550781 128.25 174.898438 135.25 173.300781 139.851562 C 170.351562 148.351562 172.648438 152.199219 177 153.101562 C 178.949219 153.5 181.75 152.601562 183.851562 151.699219 C 186.449219 150.851562 189.601562 149.398438 192.5 147.25 C 197.5 143.550781 202.300781 138.398438 202.050781 131.449219 C 201.898438 128.25 201.050781 125.101562 199.898438 122.101562 C 206.199219 119.5 214.351562 118 224.699219 119.25 C 246.949219 121.851562 251.351562 135.75 250.5 141.550781 C 249.648438 147.351562 245 150.550781 243.449219 151.550781 C 241.898438 152.5 241.398438 152.851562 241.550781 153.550781 C 241.75 154.601562 242.449219 154.550781 243.800781 154.351562 C 245.648438 154.050781 255.5 149.601562 255.898438 138.898438 C 256.5 125.148438 243.449219 110.148438 220.300781 110.300781 Z M 48.699219 168.148438 C 41.351562 176.199219 31 179.25 26.601562 176.648438 C 21.851562 173.898438 23.699219 162.050781 32.75 153.5 C 38.25 148.300781 45.398438 143.5 50.101562 140.550781 C 51.148438 139.898438 52.75 138.949219 54.648438 137.800781 C 54.949219 137.601562 55.148438 137.5 55.148438 137.5 C 55.5 137.300781 55.898438 137.050781 56.300781 136.800781 C 59.648438 149 56.449219 159.699219 48.699219 168.148438 Z M 102.449219 131.601562 C 99.898438 137.851562 94.5 153.898438 91.25 153 C 88.449219 152.25 86.75 140.101562 90.699219 128.101562 C 92.699219 122.050781 96.949219 114.851562 99.449219 112.050781 C 103.5 107.550781 107.898438 106.050781 109 107.898438 C 110.300781 110.300781 104.050781 127.699219 102.449219 131.601562 Z M 146.800781 152.800781 C 145.699219 153.351562 144.699219 153.75 144.25 153.449219 C 143.898438 153.25 144.699219 152.5 144.699219 152.5 C 144.699219 152.5 150.25 146.550781 152.449219 143.800781 C 153.699219 142.199219 155.199219 140.351562 156.800781 138.25 L 156.800781 138.851562 C 156.800781 146.050781 149.898438 150.851562 146.800781 152.800781 Z M 181 145 C 180.199219 144.398438 180.300781 142.550781 183 136.75 C 184.050781 134.449219 186.449219 130.601562 190.601562 126.949219 C 191.101562 128.449219 191.398438 129.898438 191.351562 131.25 C 191.300781 140.25 184.898438 143.601562 181 145 Z M 181 145 "/>
</g>
</svg>
